<?xml version="1.0" encoding="utf-8"?>
<!-- Generated by IcoMoon.io -->
<!DOCTYPE svg PUBLIC "-//W3C//DTD SVG 1.1//EN" "http://www.w3.org/Graphics/SVG/1.1/DTD/svg11.dtd">

<svg version="1.1" xmlns="http://www.w3.org/2000/svg" xmlns:xlink="http://www.w3.org/1999/xlink" width="80" height="32" viewBox="0 0 80 32">
<defs>
<g id="icon-arrow-left">
	<path class="path1" d="M23.038 27.869c0.429 0.434 0.429 1.133 0 1.566s-1.122 0.434-1.55 0l-12.528-12.651c-0.429-0.434-0.429-1.134 0-1.566l12.528-12.653c0.429-0.434 1.122-0.434 1.55 0s0.429 1.133 0 1.566l-11.424 11.869 11.424 11.869z"></path>
</g>
<g id="icon-arrow-left2">
	<path class="path1" d="M8.96 27.869c-0.429 0.434-0.429 1.133 0 1.566s1.122 0.434 1.55 0l12.528-12.651c0.429-0.434 0.429-1.134 0-1.566l-12.528-12.653c-0.429-0.434-1.122-0.434-1.55 0s-0.429 1.133 0 1.566l11.424 11.869-11.424 11.869z"></path>
</g>
</defs>

<g fill="#000000">
	<use xlink:href="#icon-arrow-left" transform="translate(0 0)"></use>
	<use xlink:href="#icon-arrow-left2" transform="translate(48 0)"></use>
</g>

</svg>
