<?xml version="1.0" encoding="UTF-8" standalone="no"?>
<!-- Created with Inkscape (http://www.inkscape.org/) -->

<svg
   xmlns:dc="http://purl.org/dc/elements/1.1/"
   xmlns:cc="http://creativecommons.org/ns#"
   xmlns:rdf="http://www.w3.org/1999/02/22-rdf-syntax-ns#"
   xmlns:svg="http://www.w3.org/2000/svg"
   xmlns="http://www.w3.org/2000/svg"
   xmlns:sodipodi="http://sodipodi.sourceforge.net/DTD/sodipodi-0.dtd"
   xmlns:inkscape="http://www.inkscape.org/namespaces/inkscape"
   version="1.1"
   width="64"
   height="64"
   id="svg4035"
   inkscape:version="0.48.3.1 r9886"
   sodipodi:docname="search_icon.svg">
  <sodipodi:namedview
     pagecolor="#ffffff"
     bordercolor="#666666"
     borderopacity="1"
     objecttolerance="10"
     gridtolerance="10"
     guidetolerance="10"
     inkscape:pageopacity="0"
     inkscape:pageshadow="2"
     inkscape:window-width="1317"
     inkscape:window-height="744"
     id="namedview26"
     showgrid="false"
     inkscape:zoom="3.6875"
     inkscape:cx="32"
     inkscape:cy="32"
     inkscape:window-x="49"
     inkscape:window-y="24"
     inkscape:window-maximized="1"
     inkscape:current-layer="svg4035" />
  <defs
     id="defs4037">
    <linearGradient
       x1="0"
       y1="0"
       x2="1"
       y2="0"
       id="linearGradient380"
       gradientUnits="userSpaceOnUse"
       gradientTransform="matrix(0.1294708,28.146973,28.146973,-0.1294708,65.508301,445.72803)"
       spreadMethod="pad">
      <stop
         id="stop382"
         style="stop-color:#f15a29;stop-opacity:1"
         offset="0" />
      <stop
         id="stop384"
         style="stop-color:#c94418;stop-opacity:1"
         offset="0.84242201" />
      <stop
         id="stop386"
         style="stop-color:#ad3b15;stop-opacity:1"
         offset="1" />
    </linearGradient>
    <linearGradient
       x1="0"
       y1="0"
       x2="1"
       y2="0"
       id="linearGradient480"
       gradientUnits="userSpaceOnUse"
       gradientTransform="matrix(0.0857391,18.640625,18.640625,-0.0857391,65.528809,450.48096)"
       spreadMethod="pad">
      <stop
         id="stop482"
         style="stop-color:#d9a593;stop-opacity:1"
         offset="0" />
      <stop
         id="stop484"
         style="stop-color:#f9bda9;stop-opacity:1"
         offset="1" />
    </linearGradient>
    <linearGradient
       x1="0"
       y1="0"
       x2="1"
       y2="0"
       id="linearGradient320"
       gradientUnits="userSpaceOnUse"
       gradientTransform="matrix(0,51.743652,51.743652,0,126.09619,430.58301)"
       spreadMethod="pad">
      <stop
         id="stop322"
         style="stop-color:#c94418;stop-opacity:1"
         offset="0" />
      <stop
         id="stop324"
         style="stop-color:#f15a29;stop-opacity:1"
         offset="1" />
    </linearGradient>
  </defs>
  <metadata
     id="metadata4040">
    <rdf:RDF>
      <cc:Work
         rdf:about="">
        <dc:format>image/svg+xml</dc:format>
        <dc:type
           rdf:resource="http://purl.org/dc/dcmitype/StillImage" />
        <dc:title />
      </cc:Work>
    </rdf:RDF>
  </metadata>
  <g
     id="layer1"
     transform="matrix(1.24,0,0,1.24,-7.6800007,-7.6800032)">
    <g
       transform="matrix(1.8245433,0,0,-1.7721031,-87.64077,846.81561)"
       id="g368">
      <g
         id="g370">
        <g
           id="g376">
          <g
             id="g378">
            <path
               d="m 51.944,467.955 -0.073,-16.182 c -0.015,-3.303 2.65,-5.994 5.955,-6.009 l 0,0 15.364,-0.07 c 3.305,-0.015 5.996,2.651 6.011,5.953 l 0,0 0.074,16.183 c 0.014,3.304 -2.652,5.994 -5.957,6.01 l 0,0 -15.363,0.069 c -0.01,0 -0.019,0 -0.029,0 l 0,0 c -3.291,0 -5.966,-2.66 -5.982,-5.954"
               id="path388"
               style="fill:url(#linearGradient380);stroke:none"
               inkscape:connector-curvature="0" />
          </g>
        </g>
      </g>
    </g>
    <g
       transform="matrix(1.9538086,0,0,-1.9538086,-96.091696,930.34409)"
       id="g468">
      <g
         id="g470">
        <g
           id="g476">
          <g
             id="g478">
            <path
               d="m 56.362,463.239 c -0.002,-0.351 -0.004,-0.704 -0.005,-1.056 l 0,0 c 0.235,-1.927 0.959,-3.205 2.093,-4.274 l 0,0 c 1.072,-1.009 2.734,-1.797 4.747,-1.682 l 0,0 c 1.152,0.067 2.048,0.422 2.796,0.855 l 0,0 c 0.075,0.043 0.763,0.487 0.757,0.487 l 0,0 c 0.067,-0.005 0.378,-0.419 0.49,-0.53 l 0,0 c 0.543,-0.548 1.131,-1.088 1.54,-1.554 l 0,0 c -0.163,-0.132 -0.244,-0.28 -0.193,-0.567 l 0,0 c 0.069,-0.361 0.789,-0.871 1.09,-1.174 l 0,0 c 0.825,-0.832 1.452,-1.463 2.253,-2.274 l 0,0 c 0.341,-0.343 0.785,-1.046 1.28,-1.024 l 0,0 c 0.387,0.017 0.618,0.424 0.871,0.674 l 0,0 c 0.254,0.253 0.68,0.482 0.682,0.903 l 0,0 c 0.002,0.459 -0.675,0.909 -1.012,1.249 l 0,0 c -0.782,0.79 -1.481,1.494 -2.254,2.276 l 0,0 c -0.442,0.446 -1.062,1.463 -1.77,0.951 l 0,0 c -0.674,0.674 -1.381,1.311 -1.99,2.047 l 0,0 c 0.938,1.084 1.641,2.581 1.53,4.521 l 0,0 c -0.099,1.726 -0.845,3.129 -1.831,4.122 l 0,0 c -1.031,1.042 -2.399,1.765 -4.066,1.943 l 0,0 c -0.353,0.002 -0.705,0.003 -1.057,0.005 l 0,0 c -3.43,-0.504 -5.416,-2.469 -5.951,-5.898 m 3.207,-4.162 c -0.878,0.793 -1.442,1.836 -1.563,3.233 l 0,0 c -0.137,1.584 0.454,2.751 1.2,3.579 l 0,0 c 0.705,0.783 1.806,1.485 3.269,1.598 l 0,0 c 1.452,0.113 2.822,-0.495 3.616,-1.235 l 0,0 c 0.795,-0.741 1.419,-1.826 1.526,-3.27 l 0,0 c 0.113,-1.535 -0.461,-2.699 -1.236,-3.542 l 0,0 c -0.811,-0.885 -1.84,-1.455 -3.233,-1.563 l 0,0 c -0.127,-0.01 -0.254,-0.015 -0.379,-0.015 l 0,0 c -1.277,0 -2.416,0.503 -3.2,1.215"
               id="path486"
               style="fill:url(#linearGradient480);stroke:none"
               inkscape:connector-curvature="0" />
          </g>
        </g>
      </g>
    </g>
  </g>
</svg>
